<?xml version="1.0" encoding="UTF-8"?>
<svg width="188px" height="200px" viewBox="0 0 188 200" version="1.1" xmlns="http://www.w3.org/2000/svg" xmlns:xlink="http://www.w3.org/1999/xlink">
    <!-- Generator: Sketch 59.1 (86144) - https://sketch.com -->
    <title>angular_whiteTransparent</title>
    <desc>Created with Sketch.</desc>
    <g id="Page-1" stroke="none" stroke-width="1" fill="none" fill-rule="evenodd">
        <g id="angular_whiteTransparent" fill-rule="nonzero">
            <g id="Group" fill="#FF5950">
                <polygon id="Path" points="94 123.4 69.3 123.4 57.6 152.6 57.6 152.6 35.9 152.6 35.8 152.6 94 22.1 94 22.2 94 22.2 94 0 94 0 0.9 33.2 15.1 156.3 94 200 94 200"></polygon>
                <polygon id="Path" points="77 105.4 94 105.4 94 105.4 94 64.5"></polygon>
            </g>
            <g id="Group" opacity="0.9" transform="translate(94.000000, 0.000000)" fill="#D1463F">
                <polygon id="Path" points="0 123.4 24.7 123.4 36.4 152.6 36.4 152.6 58.1 152.6 58.2 152.6 0 22.1 0 22.2 0 22.2 0 0 0 0 93.1 33.2 78.9 156.3 0 200 0 200"></polygon>
                <polygon id="Path" points="17 105.4 0 105.4 0 105.4 0 64.5"></polygon>
            </g>
        </g>
    </g>
</svg>