<?xml version="1.0" encoding="UTF-8"?>
<svg width="200px" height="200px" viewBox="0 0 200 200" version="1.1" xmlns="http://www.w3.org/2000/svg" xmlns:xlink="http://www.w3.org/1999/xlink">
    <!-- Generator: Sketch 59.1 (86144) - https://sketch.com -->
    <title>lazy-loading (1)</title>
    <desc>Created with Sketch.</desc>
    <g id="Page-1" stroke="none" stroke-width="1" fill="none" fill-rule="evenodd">
        <g id="lazy-loading-(1)" fill-rule="nonzero">
            <path d="M100,0 L100,95.097 L99.8,95.3 L90,85.5 C93.0889025,81.2618001 94.7363275,76.1442671 94.7,70.9 C94.6188625,60.0128416 87.4187757,50.4627995 76.974247,47.3889383 C66.5297184,44.315077 55.3043247,48.4424358 49.3386699,57.5500021 C43.3730151,66.6575684 44.0742329,78.5971182 51.0649843,86.943746 C58.0557357,95.2903739 69.6870949,98.0753401 79.7,93.8 L90.5,104.6 L47.7,147.5 L51.4,151.3 C52.8826495,152.790032 54.89799,153.627747 57,153.627747 C59.10201,153.627747 61.1173505,152.790032 62.6,151.3 L99.8,114 L100,114.202 L100,200 C45.3238098,200 0.896476195,156.119428 0.0133971429,101.653683 L0,100 C0,44.771525 44.771525,0 100,0 L100,0 Z M77.5834692,52.0434795 C85.2187108,55.1950629 90.2,62.6398915 90.2,70.9 C90.1928393,74.9176281 89.0110088,78.8454766 86.8,82.2 C84.2800755,86.0170524 80.5449497,88.8712522 76.2,90.3 C74.1718249,90.9878671 72.0414898,91.3260155 69.9,91.3 C61.6399907,91.3404907 54.1707745,86.3959447 50.9817099,78.776282 C47.7926452,71.1566193 49.5132127,62.3658643 55.3396231,56.5107524 C61.1660335,50.6556405 69.9482275,48.8918962 77.5834692,52.0434795 Z" id="Combined-Shape" fill="#FF594F"></path>
            <path d="M100,0 C155.228475,0 200,44.771525 200,100 C200,155.228475 155.228475,200 100,200 L100,200 L99.9995735,114.2 L137.4,151.7 C138.882649,153.190032 140.89799,154.027747 143,154.027747 C145.10201,154.027747 147.117351,153.190032 148.6,151.7 L152.3,147.9 L109.1,104.6 L120,93.7 C123.178524,95.1118254 126.622143,95.8278254 130.1,95.8 C141.582038,95.838923 151.601957,88.0213961 154.357005,76.8747182 C157.112053,65.7280403 151.887804,54.1427169 141.709733,48.8280591 C131.531662,43.5134013 119.0391,45.8475819 111.46676,54.4788265 C103.89442,63.1100711 103.205926,75.8001647 109.8,85.2 L99.9995735,95.099 Z M144.660377,56.5107524 C150.486787,62.3658643 152.207355,71.1566193 149.01829,78.776282 C145.829225,86.3959447 138.360009,91.3404907 130.1,91.3002468 C127.855054,91.2919076 125.626222,90.9204357 123.5,90.2 C115.305685,87.3187746 109.816674,79.5860795 109.8,70.9 C109.8,62.6398915 114.781289,55.1950629 122.416531,52.0434795 C130.051773,48.8918962 138.833967,50.6556405 144.660377,56.5107524 Z" id="Combined-Shape" fill="#D55851"></path>
        </g>
    </g>
</svg>